<svg width="16" height="17" viewBox="0 0 16 17" fill="none" xmlns="http://www.w3.org/2000/svg">
<path id="Vector" d="M15.0209 8.10281L11.6779 7.81334L11.641 7.62255L14.6322 6.0107C14.7175 5.96518 14.7838 5.88732 14.8181 5.79238C14.8523 5.69745 14.852 5.59229 14.8173 5.49755C14.7814 5.40266 14.7129 5.32598 14.6258 5.28318C14.5386 5.24038 14.4395 5.2347 14.3485 5.26729L11.1475 6.3265C11.1044 6.25413 11.0612 6.17518 11.018 6.10939L13.1829 3.37912C13.2485 3.30675 13.285 3.21004 13.285 3.10939C13.285 3.00875 13.2485 2.91203 13.1829 2.83966C13.114 2.76929 13.0223 2.73 12.9269 2.73C12.8315 2.73 12.7398 2.76929 12.6709 2.83966L10.1174 5.14886L9.96322 5.04361L11.0119 1.64228C11.041 1.54696 11.0356 1.44345 10.9968 1.35213C10.958 1.26082 10.8885 1.1883 10.8021 1.14886C10.7158 1.10719 10.6178 1.10238 10.5283 1.13542C10.4388 1.16846 10.3646 1.23685 10.321 1.3265L8.76053 4.49755L8.48919 4.41202L8.21167 0.846235C8.20391 0.745601 8.16079 0.651779 8.09106 0.583493C8.02132 0.515207 7.93004 0.477476 7.83537 0.477816C7.74112 0.478966 7.65063 0.517203 7.58119 0.5852C7.51176 0.653196 7.46834 0.74616 7.45923 0.846235L7.18156 4.41202L7.00282 4.44492L5.4916 1.25413C5.44787 1.16435 5.37451 1.09511 5.28561 1.05985C5.1967 1.02459 5.09874 1.02584 5.01065 1.06334C4.9231 1.10157 4.85219 1.17359 4.81218 1.26503C4.77218 1.35647 4.76595 1.46063 4.79472 1.55676L5.78779 4.97781L5.58421 5.11598L3.03068 2.80676C2.96109 2.73786 2.86978 2.69958 2.77484 2.69958C2.6799 2.69958 2.58844 2.73786 2.51886 2.80676C2.45328 2.87913 2.41661 2.97585 2.41661 3.0765C2.41661 3.17715 2.45328 3.27386 2.51886 3.34624L4.68991 6.0765C4.65147 6.12869 4.61633 6.18365 4.58496 6.24097L1.40246 5.11598C1.31144 5.08651 1.21344 5.09368 1.12705 5.13611C1.04066 5.17855 0.971875 5.25331 0.933702 5.34623C0.896614 5.43925 0.893856 5.54377 0.925872 5.6389C0.957888 5.73403 1.02234 5.81277 1.10642 5.85939L4.07931 7.52386C4.05431 7.60764 4.03569 7.69345 4.02375 7.78044L0.680879 8.06992C0.586533 8.08116 0.499217 8.12887 0.435585 8.20401C0.371952 8.27916 0.336369 8.37655 0.335449 8.47781C0.336528 8.57835 0.37229 8.67493 0.436036 8.74899C0.499783 8.82306 0.587059 8.8694 0.680879 8.87913L4.02375 9.1686L4.06079 9.36597L1.06937 10.9778C0.983588 11.0208 0.916963 11.0978 0.883559 11.1924C0.850156 11.287 0.852586 11.3917 0.890486 11.4844C0.925179 11.579 0.992262 11.656 1.07811 11.7C1.16395 11.7439 1.26218 11.7515 1.35307 11.7212L4.55424 10.6554C4.59442 10.7313 4.63975 10.8038 4.68991 10.8726L2.51886 13.6028C2.45426 13.677 2.41827 13.7746 2.41827 13.8758C2.41827 13.9771 2.45426 14.0746 2.51886 14.1489C2.58909 14.2164 2.6803 14.2537 2.77484 14.2537C2.86938 14.2537 2.96044 14.2164 3.03068 14.1489L5.58421 11.8331L5.7384 11.9449L4.68991 15.3397C4.66046 15.4359 4.66561 15.5404 4.70437 15.6328C4.74313 15.7252 4.81263 15.7989 4.89952 15.8397C4.98672 15.8792 5.08469 15.8822 5.17388 15.8481C5.26306 15.8139 5.33692 15.7451 5.38062 15.6554L6.94108 12.4844C7.01994 12.5082 7.10027 12.5258 7.18156 12.537L7.45923 16.1028C7.4669 16.2041 7.50965 16.2986 7.57924 16.368C7.64882 16.4373 7.74014 16.4765 7.83537 16.4778C7.93103 16.478 8.02313 16.4394 8.09302 16.3697C8.1629 16.3001 8.2054 16.2046 8.21167 16.1028L8.48919 12.537L8.66808 12.5041L10.1791 15.6949C10.2218 15.7858 10.2951 15.856 10.3844 15.8914C10.4737 15.9268 10.5723 15.9248 10.6602 15.8857C10.7487 15.8488 10.8205 15.7769 10.8607 15.6851C10.9009 15.5932 10.9065 15.4884 10.8762 15.3923L9.88311 11.9778L10.0867 11.8331L12.6401 14.1489C12.7097 14.2178 12.8011 14.2561 12.8961 14.2561C12.991 14.2561 13.0825 14.2178 13.152 14.1489C13.2166 14.0746 13.2525 13.9771 13.2525 13.8758C13.2525 13.7746 13.2166 13.677 13.152 13.6028L10.9872 10.8726L11.0858 10.7147L14.2745 11.8331C14.3645 11.8654 14.4629 11.8595 14.549 11.8166C14.6351 11.7738 14.7024 11.6972 14.737 11.6028C14.7741 11.5098 14.777 11.4053 14.745 11.3102C14.713 11.215 14.6486 11.1363 14.5645 11.0897L11.5978 9.43176C11.5978 9.34624 11.6348 9.26071 11.6471 9.1686L14.99 8.87913C15.0838 8.8694 15.171 8.82306 15.2347 8.74899C15.2985 8.67493 15.3344 8.57835 15.3354 8.47781C15.3288 8.38715 15.2944 8.30133 15.2376 8.23357C15.1807 8.1658 15.1046 8.11986 15.0209 8.10281ZM7.87242 10.366C7.41162 10.3642 6.97012 10.1682 6.64429 9.82066C6.31846 9.47311 6.13469 9.00222 6.13307 8.51071C6.13307 8.01866 6.3163 7.54677 6.64248 7.19884C6.96866 6.85091 7.41112 6.65545 7.87242 6.65545C8.33371 6.65545 8.77617 6.85091 9.10235 7.19884C9.42853 7.54677 9.61176 8.01866 9.61176 8.51071C9.61176 9.00275 9.42853 9.47465 9.10235 9.82258C8.77617 10.1705 8.33371 10.366 7.87242 10.366Z" fill="#296399"/>
</svg>
