<svg width="283" height="283" viewBox="0 0 283 283" fill="none" xmlns="http://www.w3.org/2000/svg">
<g id="Component 3">
<g id="Ellipse 5" filter="url(#filter0_f_0_275)">
<ellipse cx="141.335" cy="141.478" rx="41" ry="40.9999" fill="#FFC701" fill-opacity="0.35"/>
</g>
<path id="Ellipse 4" d="M179.991 142.822C179.991 164.171 162.684 181.478 141.335 181.478C119.986 181.478 102.68 164.171 102.68 142.822C102.68 121.473 119.986 104.166 141.335 104.166C162.684 104.166 179.991 121.473 179.991 142.822Z" fill="url(#paint0_linear_0_275)" stroke="url(#paint1_linear_0_275)" stroke-width="2"/>
<g id="Mask group">
<mask id="mask0_0_275" style="mask-type:alpha" maskUnits="userSpaceOnUse" x="101" y="125" width="80" height="58">
<path id="Ellipse 5_2" d="M180.991 142.822C180.991 164.723 163.237 182.478 141.335 182.478C119.434 182.478 101.68 164.723 101.68 142.822C101.68 120.921 116.41 126.019 138.311 126.019C160.212 126.019 180.991 120.921 180.991 142.822Z" fill="url(#paint2_linear_0_275)"/>
</mask>
<g mask="url(#mask0_0_275)">
<g id="Union" filter="url(#filter1_f_0_275)">
<path fill-rule="evenodd" clip-rule="evenodd" d="M201.827 215.412C201.827 231.374 188.888 244.314 172.926 244.314C172.814 244.314 172.702 244.313 172.59 244.312V244.314H71.0979L71.099 244.312C70.9867 244.314 70.8743 244.314 70.7617 244.314C54.7997 244.314 41.86 231.374 41.86 215.413C41.86 199.451 54.7997 186.511 70.7617 186.511C84.5203 186.511 96.0335 196.125 98.9498 209.002L108.737 196.592L139.319 186.51H172.59V186.512C172.702 186.511 172.814 186.51 172.926 186.51C188.888 186.51 201.827 199.45 201.827 215.412Z" fill="#E18700"/>
</g>
</g>
</g>
</g>
<defs>
<filter id="filter0_f_0_275" x="0.335464" y="0.477825" width="282" height="282" filterUnits="userSpaceOnUse" color-interpolation-filters="sRGB">
<feFlood flood-opacity="0" result="BackgroundImageFix"/>
<feBlend mode="normal" in="SourceGraphic" in2="BackgroundImageFix" result="shape"/>
<feGaussianBlur stdDeviation="50" result="effect1_foregroundBlur_0_275"/>
</filter>
<filter id="filter1_f_0_275" x="27.86" y="172.51" width="187.967" height="85.8037" filterUnits="userSpaceOnUse" color-interpolation-filters="sRGB">
<feFlood flood-opacity="0" result="BackgroundImageFix"/>
<feBlend mode="normal" in="SourceGraphic" in2="BackgroundImageFix" result="shape"/>
<feGaussianBlur stdDeviation="7" result="effect1_foregroundBlur_0_275"/>
</filter>
<linearGradient id="paint0_linear_0_275" x1="141.335" y1="103.166" x2="141.335" y2="182.478" gradientUnits="userSpaceOnUse">
<stop stop-color="#FFE600"/>
<stop offset="1" stop-color="#FF7A00"/>
</linearGradient>
<linearGradient id="paint1_linear_0_275" x1="141.335" y1="103.166" x2="141.335" y2="182.478" gradientUnits="userSpaceOnUse">
<stop stop-color="white"/>
<stop offset="1" stop-color="white" stop-opacity="0"/>
</linearGradient>
<linearGradient id="paint2_linear_0_275" x1="141.335" y1="103.166" x2="141.335" y2="182.478" gradientUnits="userSpaceOnUse">
<stop stop-color="#FFD600"/>
<stop offset="1" stop-color="#FF7A00"/>
</linearGradient>
</defs>
</svg>
