<svg width="20" height="18" viewBox="0 0 20 18" fill="none" xmlns="http://www.w3.org/2000/svg">
<g id="Group 35">
<path id="Vector" d="M7.84808 7.08315H1.38873C1.24987 7.08315 1.11246 7.05569 0.984254 7.00237C0.856046 6.94904 0.739635 6.87089 0.641744 6.77241C0.543853 6.67393 0.466273 6.55706 0.413714 6.42853C0.361155 6.30001 0.334647 6.16236 0.335484 6.02351C0.334647 5.88465 0.361155 5.74701 0.413714 5.61848C0.466273 5.48996 0.543853 5.37308 0.641744 5.2746C0.739635 5.17612 0.856046 5.09796 0.984254 5.04463C1.11246 4.9913 1.24987 4.96386 1.38873 4.96386H7.84808C8.16168 4.96387 8.46257 4.83972 8.68491 4.61856C8.90725 4.39741 9.03303 4.09724 9.0347 3.78365C9.0347 3.46896 8.9096 3.16717 8.68708 2.94465C8.46456 2.72213 8.16277 2.5971 7.84808 2.5971H5.89387C5.61283 2.5971 5.34328 2.48546 5.14456 2.28674C4.94584 2.08801 4.83412 1.8185 4.83412 1.53747C4.83412 1.25643 4.94584 0.986901 5.14456 0.788179C5.34328 0.589457 5.61283 0.477814 5.89387 0.477814H7.84808C8.72374 0.479494 9.56308 0.828533 10.1817 1.44832C10.8003 2.0681 11.1477 2.90798 11.1477 3.78365C11.146 4.65821 10.7978 5.49648 10.1793 6.1149C9.56094 6.73331 8.72265 7.08147 7.84808 7.08315Z" fill="#296399"/>
<path id="Vector_2" d="M15.5893 10.1352H1.38873C1.24987 10.1352 1.11246 10.1077 0.984254 10.0544C0.856046 10.0011 0.739635 9.9229 0.641744 9.82442C0.543853 9.72594 0.466273 9.60907 0.413714 9.48055C0.361155 9.35202 0.334647 9.21437 0.335484 9.07552C0.334647 8.93667 0.361155 8.79902 0.413714 8.67049C0.466273 8.54197 0.543853 8.4251 0.641744 8.32662C0.739635 8.22814 0.856046 8.14998 0.984254 8.09665C1.11246 8.04332 1.24987 8.01587 1.38873 8.01588H15.5893C15.9399 8.01588 16.2762 7.87703 16.5247 7.6297C16.7732 7.38237 16.9137 7.04669 16.9154 6.69608C16.9137 6.34546 16.7732 6.00978 16.5247 5.76245C16.2762 5.51512 15.9399 5.37627 15.5893 5.37628H13.7745C13.4935 5.37628 13.224 5.26463 13.0252 5.06591C12.8265 4.86719 12.7149 4.59766 12.7149 4.31662C12.7149 4.17747 12.7422 4.03968 12.7955 3.91112C12.8487 3.78256 12.9268 3.66575 13.0252 3.56735C13.1236 3.46896 13.2404 3.39089 13.369 3.33764C13.4975 3.28439 13.6354 3.25699 13.7745 3.25699H15.6209C16.0726 3.25699 16.5198 3.34594 16.9371 3.51877C17.3543 3.6916 17.7334 3.94491 18.0527 4.26426C18.3721 4.58361 18.6255 4.96275 18.7983 5.38C18.9712 5.79724 19.0601 6.24445 19.0601 6.69608C19.0601 7.15039 18.97 7.6002 18.7952 8.01953C18.6204 8.43886 18.3643 8.81939 18.0416 9.13916C17.7189 9.45893 17.336 9.71159 16.9151 9.88254C16.4941 10.0535 16.0436 10.1394 15.5893 10.1352Z" fill="#296399"/>
<path id="Vector_3" d="M9.85961 17.7494H7.17561C6.89457 17.7494 6.62502 17.6378 6.4263 17.439C6.22758 17.2403 6.11586 16.9708 6.11586 16.6898C6.11586 16.5509 6.14339 16.4134 6.19672 16.2852C6.25005 16.157 6.32813 16.0406 6.42661 15.9427C6.52509 15.8448 6.64199 15.7674 6.77052 15.7148C6.89904 15.6623 7.03676 15.6356 7.17561 15.6365H9.85961C10.1833 15.6348 10.4931 15.505 10.7214 15.2755C10.9497 15.0461 11.0778 14.7355 11.0778 14.4118C11.0778 14.0887 10.9495 13.7789 10.7211 13.5504C10.4926 13.3219 10.1827 13.1936 9.85961 13.1936H1.38873C1.10938 13.1936 0.841445 13.0826 0.643913 12.8851C0.446381 12.6875 0.335484 12.4196 0.335484 12.1403C0.334647 12.0014 0.361155 11.8638 0.413714 11.7352C0.466273 11.6067 0.543853 11.4899 0.641744 11.3914C0.739635 11.2929 0.856046 11.2147 0.984254 11.1614C1.11246 11.1081 1.24987 11.0806 1.38873 11.0806H9.85961C10.7437 11.0806 11.5916 11.4314 12.2174 12.0559C12.8431 12.6805 13.1955 13.5278 13.1972 14.4118C13.1955 15.2965 12.8432 16.1445 12.2177 16.77C11.5921 17.3956 10.7443 17.7477 9.85961 17.7494Z" fill="#296399"/>
</g>
</svg>
