<svg width="25" height="25" viewBox="0 0 25 25" fill="none" xmlns="http://www.w3.org/2000/svg">
<g id="cloud">
<path id="Vector" d="M6.93546 19.6778C5.86089 19.6764 4.82774 19.2632 4.04859 18.5231C3.26944 17.7831 2.80357 16.7726 2.74684 15.6995C2.69012 14.6265 3.04684 13.5725 3.74362 12.7544C4.4404 11.9364 5.42423 11.4165 6.49266 11.3018C6.17806 10.0681 6.36645 8.7599 7.01637 7.66506C7.6663 6.57023 8.72453 5.77841 9.95826 5.46381C11.192 5.14921 12.5002 5.3376 13.595 5.98752C14.6899 6.63745 15.4817 7.69568 15.7963 8.92941C16.53 8.82725 17.2769 8.87715 17.9905 9.07601C18.7042 9.27487 19.3692 9.61844 19.9444 10.0854C20.5195 10.5523 20.9925 11.1325 21.3338 11.79C21.6751 12.4475 21.8774 13.1682 21.9282 13.9073C21.9791 14.6464 21.8773 15.388 21.6292 16.0861C21.3812 16.7841 20.9921 17.4236 20.4863 17.9649C19.9805 18.5061 19.3687 18.9375 18.689 19.2322C18.0093 19.5269 17.2763 19.6786 16.5355 19.6778H6.93546Z" fill="#296399"/>
</g>
</svg>
